<?xml version="1.0" encoding="utf-8"?>
<!-- Generator: Adobe Illustrator 19.0.0, SVG Export Plug-In . SVG Version: 6.00 Build 0)  -->
<svg version="1.1" id="Layer_1" xmlns="http://www.w3.org/2000/svg" xmlns:xlink="http://www.w3.org/1999/xlink" x="0px" y="0px"
	 viewBox="0 0 100 100" style="enable-background:new 0 0 100 100;" xml:space="preserve">
<style type="text/css">
	.st0{fill:#F2F2F2;}
</style>
<g id="XMLID_7_">
	<path id="XMLID_10_" class="st0" d="M91.4,40.3l-6.4-1.1c-0.7-2.2-1.5-4.3-2.6-6.3l3.8-5.3c1.6-2.3,1.4-5.4-0.6-7.4l-5.7-5.8
		c-1.1-1.1-2.5-1.7-4-1.7c-1.2,0-2.3,0.4-3.3,1.1l-5.4,3.8c-2.1-1.1-4.3-2-6.5-2.7l-1.1-6.3C59.1,5.9,56.7,4,53.9,4h-8.1
		c-2.8,0-5.2,1.9-5.6,4.7L39,15.2c-2.2,0.7-4.3,1.5-6.3,2.6L27.4,14c-1-0.7-2.1-1.1-3.3-1.1c-1.5,0-3,0.6-4,1.7l-5.8,5.7
		c-2,2-2.2,5.1-0.6,7.4l3.9,5.4c-1.1,2-1.9,4.1-2.6,6.3l-6.3,1.1C5.9,41,4,43.3,4,46.1v8.1c0,2.8,1.9,5.2,4.7,5.6l6.5,1.1
		c0.7,2.2,1.5,4.3,2.6,6.3L14,72.6c-1.6,2.3-1.4,5.4,0.6,7.4l5.7,5.8c1.1,1.1,2.5,1.7,4,1.7c1.2,0,2.3-0.4,3.3-1.1l5.4-3.9
		c1.9,1,4,1.9,6.1,2.5l1.1,6.4c0.5,2.8,2.8,4.7,5.6,4.7h8.1c2.8,0,5.2-1.9,5.6-4.7l1.1-6.4c2.2-0.7,4.3-1.5,6.3-2.6l5.3,3.8
		c1,0.7,2.1,1.1,3.3,1.1c1.5,0,3-0.6,4-1.7l5.8-5.7c2-2,2.2-5.1,0.6-7.4l-3.8-5.4c1.1-2,1.9-4.1,2.6-6.3l6.4-1.1
		c2.8-0.5,4.7-2.8,4.7-5.6v-8.1C96,43.1,94.1,40.8,91.4,40.3z M50,65.5c-8.5,0-15.5-6.9-15.5-15.5c0-8.5,6.9-15.5,15.5-15.5
		S65.5,41.5,65.5,50C65.5,58.5,58.5,65.5,50,65.5z"/>
</g>
</svg>
