<?xml version="1.0" encoding="utf-8"?>
<!-- Generator: Adobe Illustrator 19.0.0, SVG Export Plug-In . SVG Version: 6.00 Build 0)  -->
<svg version="1.1" id="Layer_1" xmlns="http://www.w3.org/2000/svg" xmlns:xlink="http://www.w3.org/1999/xlink" x="0px" y="0px"
	 viewBox="0 0 100 100" style="enable-background:new 0 0 100 100;" xml:space="preserve">
<path id="XMLID_4_" d="M66.7,50l29.1-29.1c4.6-4.6,4.6-12.1,0-16.7c-4.6-4.6-12.1-4.6-16.7,0L50,33.3L20.9,4.3
	c-4.6-4.6-12.1-4.6-16.7,0c-4.6,4.6-4.6,12.1,0,16.7L33.3,50L4.3,79.1c-4.6,4.6-4.6,12.1,0,16.7c2.3,2.3,5.3,3.4,8.3,3.4
	c3,0,6-1.1,8.3-3.4L50,66.7l29.1,29.1c2.3,2.3,5.3,3.4,8.3,3.4s6-1.1,8.3-3.4c4.6-4.6,4.6-12.1,0-16.7L66.7,50z"/>
</svg>
