<?xml version="1.0" encoding="utf-8"?>
<!-- Generator: Adobe Illustrator 19.0.0, SVG Export Plug-In . SVG Version: 6.00 Build 0)  -->
<svg version="1.1" id="Layer_1" xmlns="http://www.w3.org/2000/svg" xmlns:xlink="http://www.w3.org/1999/xlink" x="0px" y="0px"
	 viewBox="0 0 200 200" style="enable-background:new 0 0 200 200;" xml:space="preserve">
<style type="text/css">
	.st0{fill:#EF0044;}
	.st1{fill:#F1E300;}
	.st2{fill:#4DD4AD;}
	.st3{fill:none;stroke:#646263;stroke-width:4;stroke-miterlimit:10;}
	.st4{fill:#646263;}
</style>
<g id="XMLID_5_">
	<polygon id="XMLID_4_" class="st0" points="11,126.3 56.6,87.4 99.2,99.2 139.2,54.3 182.3,38 181.6,59.3 163.5,86.6 150.9,169 
		16.6,169 11,159 	"/>
	<polygon id="XMLID_1_" class="st1" points="12.3,139.5 25.3,124.9 56.5,111.2 80.3,123.8 130.9,87.2 147.1,90.9 181.6,59.3 
		170.4,80.6 175.7,91.7 166.5,103.9 151,113.2 151,169.1 15.6,168.1 10.7,158.7 	"/>
	<polygon id="XMLID_3_" class="st2" points="12.8,165.3 50.2,139.3 69.6,144.9 110.6,124.7 127.2,131.2 143.4,103.1 179.7,97.9 
		166.3,127.8 180,154.7 180,169 17,169 	"/>
	<g id="XMLID_2_">
		<g id="XMLID_25_">
			<path id="XMLID_30_" class="st3" d="M12,42v118.3c0,0,0.9,7.7,6.9,7.7c4.9,0,164.1,0,164.1,0"/>
			<g id="XMLID_28_">
				<polygon id="XMLID_29_" class="st4" points="1.9,45 11.9,27.7 21.8,45 				"/>
			</g>
			<g id="XMLID_26_">
				<polygon id="XMLID_27_" class="st4" points="180,178 197.3,168.1 180,158.1 				"/>
			</g>
		</g>
	</g>
</g>
</svg>
