<?xml version="1.0" encoding="utf-8"?>
<!-- Generator: Adobe Illustrator 19.0.0, SVG Export Plug-In . SVG Version: 6.00 Build 0)  -->
<svg version="1.1" id="Layer_1" xmlns="http://www.w3.org/2000/svg" xmlns:xlink="http://www.w3.org/1999/xlink" x="0px" y="0px"
	 viewBox="0 0 400 400" style="enable-background:new 0 0 400 400;" xml:space="preserve">
<style type="text/css">
	.st0{opacity:0.2;fill:#DEE3E7;enable-background:new    ;}
	.st1{fill:#A6B6C2;}
	.st2{fill:#FFFFFF;}
	.st3{fill:#DEE3E7;}
	.st4{fill:#C3CDD5;}
	.st5{fill:none;stroke:#A6B6C2;stroke-width:5;stroke-miterlimit:10;}
	.st6{fill:none;stroke:#A6B6C2;stroke-width:5;stroke-miterlimit:10;stroke-dasharray:11.6614,11.6614;}
	.st7{fill:#9EAEB7;}
</style>
<g id="XMLID_17_">
	<ellipse id="XMLID_15_" class="st0" cx="201" cy="261.6" rx="54.4" ry="3.6"/>
	<g id="XMLID_36_">
		<path id="XMLID_14_" class="st1" d="M164.3,243.7h74.6c0,0,25.1-1.8,25.1-25.1s-24.1-25.9-24.1-25.9s-3-26.9-31.6-31.9
			s-40.4,20-40.4,20s-27.9,2.3-30.2,29.4S164.3,243.7,164.3,243.7z"/>
		<polygon id="XMLID_13_" class="st2" points="212.4,227.9 212.4,207.6 226.4,207.6 200.1,181.4 174.1,207.3 188,207.3 188,227.9 		
			"/>
	</g>
	<path class="st3" d="M315.1,119.6l-47.2-24.8c-1.3-0.8-3-0.2-3.7,1.1l-32.8,62.5c-0.8,1.3-0.2,3,1.1,3.7l47.2,24.8
		c1.5,0.7,3.1,0.2,3.7-1.1l32.8-62.5C317,122,316.4,120.3,315.1,119.6z M281.4,158l-26.1-13.5l0.7-2.2l15.5-10.4l3.4,16.6l13-2.5
		L281.4,158z M285,140.8c-1.6,0-2.9-1.3-2.9-2.9s1.3-2.9,2.9-2.9s2.9,1.3,2.9,2.9S286.6,140.8,285,140.8z"/>
	<path class="st3" d="M165.1,163.9l-21-67.3c-0.4-1.4-2-2.3-3.4-1.8l-50.9,15.8c-1.4,0.4-2.3,2-1.8,3.4l20.9,67.4
		c0.4,1.4,2,2.3,3.4,1.8l50.9-15.9C164.7,166.9,165.5,165.3,165.1,163.9z M111.3,136.2c0-1.5,1.3-2.8,2.8-2.8s2.8,1.3,2.8,2.8
		s-1.3,2.8-2.8,2.8C112.6,139,111.3,137.7,111.3,136.2z M115.8,153l0.5-8.4l4.3,1.4l2.2-9.9l7.9,4.7l1.4-12.9l13.1,14.4L115.8,153z"
		/>
	<g>
		<path class="st4" d="M214,101.6c-1.4,0-2.4,1.1-2.4,2.4c0,1.4,1.1,2.4,2.4,2.4s2.3-1,2.4-2.4C216.4,102.6,215.4,101.6,214,101.6z"
			/>
		<path class="st4" d="M194,97l3.6,0.6c0.3,0.1,0.7-0.2,0.7-0.5l0.3-2.6c0.1-0.3-0.2-0.7-0.5-0.7l-3.6-0.5c-0.3-0.1-0.7,0.2-0.7,0.5
			l-0.3,2.5C193.4,96.6,193.7,97,194,97z"/>
		<path class="st4" d="M197.1,100.6c-4.6,0-8.3,3.7-8.3,8.3c0,4.6,3.8,8.3,8.3,8.3c4.6,0,8.3-3.7,8.3-8.3
			C205.4,104.3,201.7,100.6,197.1,100.6z M197.1,114.8c-3.3,0-5.9-2.6-5.9-5.9s2.6-5.9,5.9-5.9s5.9,2.6,5.9,5.9
			C203,112.2,200.4,114.8,197.1,114.8z"/>
		<path class="st4" d="M234.3,74.3l-52.6-8.8c-1.4-0.3-2.8,0.8-3.1,2.3L167,137.4c-0.3,1.4,0.8,2.8,2.3,3.1l52.6,8.8
			c1.5,0.3,2.9-0.8,3.1-2.3l11.6-69.6C236.9,76,235.8,74.6,234.3,74.3z M219.5,100.1l-3,22c-0.1,0.9-1.1,1.6-2,1.5l-30.1-4.1
			c-0.9-0.1-1.6-1.1-1.5-2l3-22c0.1-0.9,1.1-1.6,2-1.5l3.4,0.5l0.4-2.8c0.1-0.7,0.7-1.2,1.5-1.1l6.8,0.9c0.7,0.1,1.2,0.7,1.1,1.5
			l-0.4,2.8l17.2,2.4C218.9,98.3,219.6,99.3,219.5,100.1z"/>
	</g>
</g>
<g id="XMLID_16_">
	<g id="XMLID_40_">
		<polyline id="XMLID_48_" class="st5" points="351.8,345.8 351.8,351.8 345.8,351.8 		"/>
		<line id="XMLID_47_" class="st6" x1="334.1" y1="351.8" x2="60.1" y2="351.8"/>
		<polyline id="XMLID_46_" class="st5" points="54.2,351.8 48.2,351.8 48.2,345.8 		"/>
		<line id="XMLID_45_" class="st6" x1="48.2" y1="334.1" x2="48.2" y2="60.1"/>
		<polyline id="XMLID_44_" class="st5" points="48.2,54.2 48.2,48.2 54.2,48.2 		"/>
		<line id="XMLID_43_" class="st6" x1="65.9" y1="48.2" x2="339.9" y2="48.2"/>
		<polyline id="XMLID_42_" class="st5" points="345.8,48.2 351.8,48.2 351.8,54.2 		"/>
		<line id="XMLID_41_" class="st6" x1="351.8" y1="65.9" x2="351.8" y2="339.9"/>
	</g>
</g>
<g>
	<path class="st7" d="M107.6,275.5h7c1.5,0,2.8,0.1,3.6,0.4c1.1,0.4,2,0.9,2.8,1.8s1.4,1.9,1.8,3.1c0.4,1.3,0.6,2.7,0.6,4.5
		c0,1.5-0.3,2.9-0.6,4.1c-0.5,1.4-1.1,2.6-2,3.3c-0.6,0.6-1.5,1.1-2.7,1.5c-0.9,0.3-2,0.4-3.4,0.4h-7.3v-19L107.6,275.5L107.6,275.5
		z M111.4,278.7v12.6h2.8c1,0,1.8,0,2.3-0.1c0.6-0.1,1.1-0.4,1.5-0.8s0.8-1,1-1.8s0.4-2,0.4-3.4c0-1.5-0.1-2.6-0.4-3.3
		s-0.6-1.4-1.1-1.8s-1-0.8-1.8-0.9c-0.5-0.1-1.5-0.1-3.2-0.1h-1.5C111.4,279.1,111.4,278.7,111.4,278.7z"/>
	<path class="st7" d="M126.7,294.5v-19h8c2,0,3.4,0.1,4.5,0.5c0.9,0.4,1.7,0.9,2.2,1.8s0.9,1.9,0.9,2.9c0,1.4-0.4,2.6-1.3,3.6
		c-0.9,0.9-2,1.5-3.7,1.8c0.8,0.5,1.5,1,2,1.5s1.3,1.7,2.2,3.1l2.3,3.7h-4.6l-2.8-4.1c-1-1.5-1.7-2.4-2-2.8
		c-0.4-0.4-0.8-0.6-1.1-0.8c-0.4-0.1-1-0.3-1.9-0.3h-0.8v7.9h-3.8L126.7,294.5L126.7,294.5z M130.5,283.5h2.8c1.8,0,2.9-0.1,3.4-0.3
		c0.5-0.1,0.8-0.4,1-0.8c0.3-0.4,0.4-0.9,0.4-1.4c0-0.6-0.1-1.1-0.5-1.5s-0.8-0.6-1.4-0.8c-0.3,0-1.3-0.1-2.8-0.1h-2.9V283.5z"/>
	<path class="st7" d="M163,294.5h-4.2l-1.7-4.3h-7.5l-1.5,4.3H144l7.4-19h4.1L163,294.5z M155.9,287l-2.7-7l-2.6,7H155.9z"/>
	<path class="st7" d="M173.9,287.5v-3.2h8.3v7.5c-0.8,0.8-1.9,1.4-3.4,2s-3.1,0.9-4.6,0.9c-2,0-3.7-0.4-5.2-1.3s-2.6-2-3.3-3.6
		c-0.8-1.5-1.1-3.2-1.1-5.1s0.4-3.7,1.3-5.2c0.8-1.5,2-2.7,3.7-3.6c1.3-0.6,2.7-0.9,4.6-0.9c2.3,0,4.2,0.5,5.5,1.5s2.2,2.3,2.6,4.1
		l-3.8,0.8c-0.3-0.9-0.8-1.7-1.5-2.2c-0.8-0.5-1.7-0.8-2.8-0.8c-1.7,0-3.1,0.5-4,1.5c-1,1-1.5,2.7-1.5,4.7c0,2.3,0.5,4,1.5,5.1
		s2.3,1.7,4,1.7c0.8,0,1.7-0.1,2.4-0.5c0.8-0.4,1.5-0.6,2-1.1v-2.4L173.9,287.5L173.9,287.5z"/>
	<path class="st7" d="M209.8,292.2l-2.2,2.8c-1-0.5-2.2-1.3-3.1-2.2c-0.8,0.6-1.5,1.1-2.4,1.5s-1.9,0.5-3.1,0.5
		c-2.4,0-4.1-0.6-5.4-2c-0.9-1-1.4-2.2-1.4-3.6c0-1.3,0.4-2.3,1.1-3.3c0.8-1,1.8-1.8,3.2-2.6c-0.6-0.8-1.1-1.5-1.4-2.2
		c-0.4-0.6-0.5-1.4-0.5-1.9c0-1.1,0.5-2.2,1.4-2.9c0.9-0.8,2.2-1.1,4-1.1c1.7,0,2.9,0.4,3.8,1.3c0.9,0.9,1.4,1.9,1.4,3.1
		c0,0.8-0.3,1.5-0.6,2.2c-0.5,0.6-1.4,1.5-2.8,2.3l2.7,3.4c0.3-0.5,0.6-1.3,0.8-2.2l3.3,0.8c-0.4,1.1-0.6,2-0.9,2.6
		c-0.3,0.5-0.5,1-0.8,1.4c0.4,0.4,0.9,0.8,1.5,1.3C209.1,291.7,209.6,292.1,209.8,292.2z M198.6,285.8c-0.9,0.4-1.4,0.9-1.9,1.5
		c-0.4,0.6-0.6,1.1-0.6,1.8c0,0.8,0.3,1.4,0.8,1.9s1.1,0.8,2,0.8c0.5,0,1.1-0.1,1.7-0.4c0.5-0.3,1.1-0.6,1.8-1.1L198.6,285.8z
		 M200,281.9l1-0.8c0.8-0.5,1.1-1.1,1.1-1.7c0-0.5-0.1-0.9-0.5-1.1c-0.4-0.4-0.8-0.5-1.4-0.5s-1,0.1-1.4,0.4s-0.5,0.6-0.5,1
		c0,0.5,0.3,1,0.8,1.7L200,281.9z"/>
	<path class="st7" d="M219.7,275.5h7c1.5,0,2.8,0.1,3.6,0.4c1.1,0.4,2,0.9,2.8,1.8s1.4,1.9,1.8,3.1c0.4,1.3,0.6,2.7,0.6,4.5
		c0,1.5-0.3,2.9-0.6,4.1c-0.5,1.4-1.1,2.6-2,3.3c-0.6,0.6-1.5,1.1-2.7,1.5c-0.9,0.3-1.9,0.4-3.4,0.4h-7.3v-19L219.7,275.5
		L219.7,275.5z M223.5,278.7v12.6h2.8c1,0,1.8,0,2.3-0.1c0.6-0.1,1.1-0.4,1.5-0.8s0.8-1,1-1.8c0.3-0.8,0.4-2,0.4-3.4
		c0-1.5-0.1-2.6-0.4-3.3c-0.3-0.8-0.6-1.4-1.1-1.8s-1-0.8-1.8-0.9c-0.5-0.1-1.5-0.1-3.2-0.1h-1.5V278.7z"/>
	<path class="st7" d="M238.8,294.5v-19h8c2,0,3.4,0.1,4.5,0.5c0.9,0.4,1.7,0.9,2.2,1.8s0.9,1.9,0.9,2.9c0,1.4-0.4,2.6-1.3,3.6
		c-0.9,0.9-2,1.5-3.7,1.8c0.8,0.5,1.5,1,2,1.5s1.3,1.7,2.2,3.1l2.3,3.7h-4.6l-2.8-4.1c-1-1.5-1.7-2.4-2-2.8
		c-0.4-0.4-0.8-0.6-1.1-0.8c-0.4-0.1-1-0.3-1.9-0.3h-0.8v7.9h-3.8L238.8,294.5L238.8,294.5z M242.6,283.5h2.8c1.8,0,2.9-0.1,3.4-0.3
		c0.5-0.1,0.8-0.4,1-0.8c0.3-0.4,0.4-0.9,0.4-1.4c0-0.6-0.1-1.1-0.5-1.5s-0.8-0.6-1.4-0.8c-0.3,0-1.3-0.1-2.8-0.1h-2.9V283.5z"/>
	<path class="st7" d="M257.2,285.1c0-1.9,0.3-3.6,0.9-4.9c0.4-1,1-1.8,1.8-2.6c0.8-0.8,1.5-1.3,2.4-1.7c1.1-0.5,2.6-0.8,4.1-0.8
		c2.8,0,5,0.9,6.8,2.6c1.7,1.8,2.6,4.2,2.6,7.3c0,3.1-0.9,5.5-2.6,7.2c-1.7,1.8-4,2.6-6.6,2.6c-2.8,0-5.1-0.9-6.8-2.6
		C258.1,290.6,257.2,288.1,257.2,285.1z M261.2,284.9c0,2.2,0.5,3.8,1.5,4.9s2.3,1.7,3.8,1.7s2.8-0.5,3.7-1.7c1-1.1,1.5-2.8,1.5-5
		s-0.5-3.8-1.4-4.9c-0.9-1-2.2-1.7-3.8-1.7s-2.8,0.5-3.8,1.7C261.7,281.1,261.2,282.8,261.2,284.9z"/>
	<path class="st7" d="M278.6,294.5v-19h6.1c2.3,0,3.8,0.1,4.6,0.3c1.1,0.3,2,0.9,2.7,1.9c0.6,1,1.1,2.2,1.1,3.7
		c0,1.1-0.3,2.2-0.6,2.9c-0.4,0.8-1,1.4-1.7,1.9c-0.6,0.5-1.3,0.8-2,0.9c-0.9,0.1-2.3,0.3-4,0.3h-2.6v7.2L278.6,294.5L278.6,294.5z
		 M282.5,278.7v5.4h2c1.5,0,2.6-0.1,3.1-0.3c0.5-0.3,0.9-0.5,1.1-0.9c0.3-0.4,0.4-0.9,0.4-1.5s-0.3-1.3-0.6-1.7
		c-0.4-0.5-0.9-0.8-1.5-0.9c-0.5-0.1-1.4-0.1-2.8-0.1H282.5L282.5,278.7z"/>
	<path class="st7" d="M177.3,319.4l3.7,1.1c-0.5,2-1.5,3.6-2.8,4.6s-3.1,1.5-5.1,1.5c-2.6,0-4.6-0.9-6.3-2.6s-2.4-4.1-2.4-7
		c0-3.2,0.8-5.6,2.4-7.4c1.7-1.8,3.8-2.7,6.4-2.7c2.3,0,4.2,0.6,5.6,2c0.9,0.8,1.5,2,1.9,3.4l-3.8,0.9c-0.3-1-0.6-1.8-1.4-2.3
		c-0.8-0.5-1.5-0.9-2.6-0.9c-1.4,0-2.6,0.5-3.4,1.5c-0.9,1-1.3,2.7-1.3,4.9c0,2.4,0.4,4.1,1.3,5.1c0.9,1,2,1.5,3.3,1.5
		c1,0,1.9-0.4,2.7-1C176.2,321.6,176.9,320.8,177.3,319.4z"/>
	<path class="st7" d="M184.3,326.3v-18.9h3.8v15.7h9.6v3.2L184.3,326.3L184.3,326.3z"/>
	<path class="st7" d="M200.4,326.3v-19h3.8v19H200.4z"/>
	<path class="st7" d="M220,319.4l3.7,1.1c-0.5,2-1.5,3.6-2.8,4.6s-3.1,1.5-5.1,1.5c-2.6,0-4.6-0.9-6.3-2.6s-2.4-4.1-2.4-7
		c0-3.2,0.8-5.6,2.4-7.4c1.7-1.8,3.8-2.7,6.4-2.7c2.3,0,4.2,0.6,5.6,2c0.9,0.8,1.5,2,1.9,3.4l-3.8,0.9c-0.3-1-0.6-1.8-1.4-2.3
		s-1.5-0.9-2.6-0.9c-1.4,0-2.6,0.5-3.4,1.5c-0.9,1-1.3,2.7-1.3,4.9c0,2.4,0.4,4.1,1.3,5.1c0.9,1,2,1.5,3.3,1.5c1,0,1.9-0.4,2.7-1
		C219,321.6,219.7,320.8,220,319.4z"/>
	<path class="st7" d="M227.1,326.3v-19h3.8v8.4l7.8-8.4h5.1l-7.2,7.4l7.5,11.6h-5l-5.2-8.9l-3.1,3.2v5.7L227.1,326.3L227.1,326.3z"
		/>
</g>
</svg>
