<?xml version="1.0" encoding="utf-8"?>
<!-- Generator: Adobe Illustrator 19.0.0, SVG Export Plug-In . SVG Version: 6.00 Build 0)  -->
<svg version="1.1" id="Layer_1" xmlns="http://www.w3.org/2000/svg" xmlns:xlink="http://www.w3.org/1999/xlink" x="0px" y="0px"
	 viewBox="150 -150 400 400" style="enable-background:new 150 -150 400 400;" xml:space="preserve">
<style type="text/css">
	.st0{opacity:0.2;fill:#DEE3E7;enable-background:new    ;}
	.st1{fill:#A6B6C2;}
	.st2{fill:#FFFFFF;}
	.st3{fill:#DEE3E7;}
	.st4{fill:#C3CDD5;}
	.st5{fill:none;stroke:#A6B6C2;stroke-width:5;stroke-miterlimit:10;}
	.st6{fill:none;stroke:#A6B6C2;stroke-width:5;stroke-miterlimit:10;stroke-dasharray:11.6614,11.6614;}
	.st7{fill:#9EAEB7;}
	.st8{opacity:0.7;fill:#9EAEB7;}
</style>
<g id="XMLID_17_">
	<ellipse id="XMLID_15_" class="st0" cx="350.6" cy="112" rx="54.4" ry="3.6"/>
	<g id="XMLID_36_">
		<path id="XMLID_14_" class="st1" d="M313.9,94.1h74.6c0,0,25.1-1.8,25.1-25.1s-24.1-25.9-24.1-25.9s-3-26.9-31.6-31.9
			s-40.4,20-40.4,20s-27.9,2.3-30.2,29.4C285,87.7,313.9,94.1,313.9,94.1z"/>
		<polygon id="XMLID_13_" class="st2" points="362,78.3 362,58 376,58 349.7,31.8 323.7,57.7 337.6,57.7 337.6,78.3 		"/>
	</g>
	<path class="st3" d="M464.7-30l-47.2-24.8c-1.3-0.8-3-0.2-3.7,1.1L381,8.8c-0.8,1.3-0.2,3,1.1,3.7l47.2,24.8
		c1.5,0.7,3.1,0.2,3.7-1.1l32.8-62.5C466.6-27.6,466-29.3,464.7-30z M431,8.4L404.9-5.1l0.7-2.2l15.5-10.4l3.4,16.6l13-2.5L431,8.4z
		 M434.6-8.8c-1.6,0-2.9-1.3-2.9-2.9s1.3-2.9,2.9-2.9s2.9,1.3,2.9,2.9S436.2-8.8,434.6-8.8z"/>
	<path class="st3" d="M314.7,14.3l-21-67.3c-0.4-1.4-2-2.3-3.4-1.8L239.4-39c-1.4,0.4-2.3,2-1.8,3.4l20.9,67.4
		c0.4,1.4,2,2.3,3.4,1.8l50.9-15.9C314.3,17.3,315.1,15.7,314.7,14.3z M260.9-13.4c0-1.5,1.3-2.8,2.8-2.8s2.8,1.3,2.8,2.8
		s-1.3,2.8-2.8,2.8S260.9-11.9,260.9-13.4z M265.4,3.4l0.5-8.4l4.3,1.4l2.2-9.9l7.9,4.7l1.4-12.9l13.1,14.4L265.4,3.4z"/>
	<g>
		<path class="st4" d="M363.6-48c-1.4,0-2.4,1.1-2.4,2.4c0,1.4,1.1,2.4,2.4,2.4s2.3-1,2.4-2.4C366-47,365-48,363.6-48z"/>
		<path class="st4" d="M343.6-52.6l3.6,0.6c0.3,0.1,0.7-0.2,0.7-0.5l0.3-2.6c0.1-0.3-0.2-0.7-0.5-0.7l-3.6-0.5
			c-0.3-0.1-0.7,0.2-0.7,0.5l-0.3,2.5C343-53,343.3-52.6,343.6-52.6z"/>
		<path class="st4" d="M346.7-49c-4.6,0-8.3,3.7-8.3,8.3s3.8,8.3,8.3,8.3c4.6,0,8.3-3.7,8.3-8.3S351.3-49,346.7-49z M346.7-34.8
			c-3.3,0-5.9-2.6-5.9-5.9s2.6-5.9,5.9-5.9s5.9,2.6,5.9,5.9S350-34.8,346.7-34.8z"/>
		<path class="st4" d="M383.9-75.3l-52.6-8.8c-1.4-0.3-2.8,0.8-3.1,2.3l-11.6,69.6c-0.3,1.4,0.8,2.8,2.3,3.1l52.6,8.8
			c1.5,0.3,2.9-0.8,3.1-2.3l11.6-69.6C386.5-73.6,385.4-75,383.9-75.3z M369.1-49.5l-3,22c-0.1,0.9-1.1,1.6-2,1.5L334-30.1
			c-0.9-0.1-1.6-1.1-1.5-2l3-22c0.1-0.9,1.1-1.6,2-1.5l3.4,0.5l0.4-2.8c0.1-0.7,0.7-1.2,1.5-1.1l6.8,0.9c0.7,0.1,1.2,0.7,1.1,1.5
			l-0.4,2.8l17.2,2.4C368.5-51.3,369.2-50.3,369.1-49.5z"/>
	</g>
</g>
<g id="XMLID_16_">
	<g id="XMLID_40_">
		<polyline id="XMLID_48_" class="st5" points="501.4,196.2 501.4,202.2 495.4,202.2 		"/>
		<line id="XMLID_47_" class="st6" x1="483.7" y1="202.2" x2="209.7" y2="202.2"/>
		<polyline id="XMLID_46_" class="st5" points="203.8,202.2 197.8,202.2 197.8,196.2 		"/>
		<line id="XMLID_45_" class="st6" x1="197.8" y1="184.5" x2="197.8" y2="-89.5"/>
		<polyline id="XMLID_44_" class="st5" points="197.8,-95.4 197.8,-101.4 203.8,-101.4 		"/>
		<line id="XMLID_43_" class="st6" x1="215.5" y1="-101.4" x2="489.5" y2="-101.4"/>
		<polyline id="XMLID_42_" class="st5" points="495.4,-101.4 501.4,-101.4 501.4,-95.4 		"/>
		<line id="XMLID_41_" class="st6" x1="501.4" y1="-83.7" x2="501.4" y2="190.3"/>
	</g>
</g>
<g>
	<g>
		<path class="st7" d="M271.3,147.1l4.3,1.4c-0.7,2.4-1.8,4.2-3.3,5.4s-3.5,1.8-5.9,1.8c-2.9,0-5.4-1-7.3-3s-2.8-4.8-2.8-8.3
			c0-3.7,1-6.6,2.9-8.6s4.4-3.1,7.5-3.1c2.7,0,4.9,0.8,6.6,2.4c1,0.9,1.8,2.3,2.3,4.1l-4.4,1.1c-0.3-1.2-0.8-2.1-1.6-2.7
			c-0.8-0.7-1.8-1-3-1c-1.6,0-3,0.6-4,1.8s-1.5,3.1-1.5,5.7c0,2.8,0.5,4.8,1.5,6s2.3,1.8,3.9,1.8c1.2,0,2.2-0.4,3.1-1.1
			C270.3,150,271,148.8,271.3,147.1z"/>
		<path class="st7" d="M279.6,155.3v-22h4.5v18.3h11.1v3.7H279.6z"/>
		<path class="st7" d="M298.3,155.3v-22.2h4.5v22.2H298.3z"/>
		<path class="st7" d="M321.3,147.1l4.3,1.4c-0.7,2.4-1.8,4.2-3.3,5.4s-3.5,1.8-5.9,1.8c-2.9,0-5.4-1-7.3-3s-2.8-4.8-2.8-8.3
			c0-3.7,1-6.6,2.9-8.6s4.4-3.1,7.5-3.1c2.7,0,4.9,0.8,6.6,2.4c1,0.9,1.8,2.3,2.3,4.1l-4.4,1.1c-0.3-1.2-0.8-2.1-1.6-2.7
			c-0.8-0.7-1.8-1-3-1c-1.6,0-3,0.6-4,1.8s-1.5,3.1-1.5,5.7c0,2.8,0.5,4.8,1.5,6s2.3,1.8,3.9,1.8c1.2,0,2.2-0.4,3.1-1.1
			C320.3,150,320.9,148.8,321.3,147.1z"/>
		<path class="st7" d="M329.5,155.3v-22.2h4.5v9.9l9.1-9.9h6l-8.4,8.6l8.8,13.5h-5.8l-6.1-10.4l-3.6,3.7v6.7L329.5,155.3
			L329.5,155.3z"/>
		<path class="st7" d="M360.5,155.3v-22.2h4.5v8.7h8.8v-8.7h4.5v22.2h-4.5v-9.7H365v9.7H360.5z"/>
		<path class="st7" d="M382.8,155.3v-22.2h16.5v3.8h-12v4.9h11.1v3.7h-11.1v6h12.4v3.7h-16.9V155.3z"/>
		<path class="st7" d="M403.5,155.3v-22.2h9.4c2.4,0,4.1,0.2,5.2,0.6c1.1,0.4,1.9,1.1,2.6,2.1s1,2.2,1,3.5c0,1.7-0.5,3-1.5,4.1
			s-2.4,1.8-4.4,2.1c1,0.6,1.8,1.2,2.4,1.9s1.5,1.9,2.6,3.6l2.7,4.3h-5.4l-3.2-4.8c-1.2-1.7-1.9-2.8-2.4-3.3
			c-0.4-0.4-0.9-0.8-1.3-0.9c-0.5-0.2-1.2-0.2-2.3-0.2H408v9.3h-4.5V155.3z M408,142.5h3.3c2.1,0,3.5-0.1,4-0.3s1-0.5,1.3-0.9
			s0.5-1,0.5-1.7s-0.2-1.3-0.6-1.8s-1-0.8-1.7-0.9c-0.4,0-1.5-0.1-3.3-0.1H408L408,142.5L408,142.5z"/>
		<path class="st7" d="M425.9,155.3v-22.2h16.5v3.8h-12v4.9h11.1v3.7h-11.1v6h12.4v3.7h-16.9V155.3z"/>
		<path class="st8" d="M268.9,176.3v-8.9h-3.2v-1.8h8.5v1.8H271v8.9H268.9z"/>
		<path class="st8" d="M275.2,171c0-1.1,0.2-2,0.5-2.8c0.2-0.5,0.6-1,1-1.5c0.4-0.4,0.9-0.8,1.4-1c0.7-0.3,1.4-0.4,2.3-0.4
			c1.6,0,2.8,0.5,3.8,1.5c0.9,1,1.4,2.3,1.4,4.1c0,1.7-0.5,3.1-1.4,4.1s-2.2,1.5-3.8,1.5c-1.6,0-2.9-0.5-3.8-1.5
			C275.7,174.1,275.2,172.7,275.2,171z M277.5,170.9c0,1.2,0.3,2.1,0.8,2.8c0.6,0.6,1.3,0.9,2.1,0.9s1.6-0.3,2.1-0.9
			c0.6-0.6,0.8-1.6,0.8-2.8s-0.3-2.1-0.8-2.8c-0.5-0.6-1.3-0.9-2.1-0.9s-1.6,0.3-2.2,0.9C277.8,168.8,277.5,169.7,277.5,170.9z"/>
		<path class="st8" d="M291.6,176.3v-10.6h2.2v8.8h5.4v1.8H291.6z"/>
		<path class="st8" d="M300.2,171c0-1.1,0.2-2,0.5-2.8c0.2-0.5,0.6-1,1-1.5c0.4-0.4,0.9-0.8,1.4-1c0.7-0.3,1.4-0.4,2.3-0.4
			c1.6,0,2.8,0.5,3.8,1.5c0.9,1,1.4,2.3,1.4,4.1c0,1.7-0.5,3.1-1.4,4.1s-2.2,1.5-3.8,1.5c-1.6,0-2.9-0.5-3.8-1.5
			C300.7,174.1,300.2,172.7,300.2,171z M302.5,170.9c0,1.2,0.3,2.1,0.8,2.8c0.6,0.6,1.3,0.9,2.1,0.9s1.6-0.3,2.1-0.9
			c0.6-0.6,0.8-1.6,0.8-2.8s-0.3-2.1-0.8-2.8c-0.5-0.6-1.3-0.9-2.1-0.9s-1.6,0.3-2.2,0.9C302.8,168.8,302.5,169.7,302.5,170.9z"/>
		<path class="st8" d="M322,176.3h-2.4l-0.9-2.4h-4.3l-0.9,2.4h-2.3l4.2-10.7h2.3L322,176.3z M318,172.1l-1.5-4l-1.5,4H318z"/>
		<path class="st8" d="M323.2,165.6h4c0.9,0,1.6,0.1,2,0.2c0.6,0.2,1.2,0.5,1.6,1s0.8,1.1,1,1.7c0.2,0.7,0.4,1.5,0.4,2.5
			c0,0.9-0.1,1.6-0.3,2.3c-0.3,0.8-0.7,1.4-1.1,1.9c-0.4,0.4-0.9,0.7-1.5,0.9c-0.5,0.2-1.1,0.2-1.9,0.2h-4.1v-10.7H323.2z
			 M325.3,167.4v7.1h1.6c0.6,0,1,0,1.3-0.1c0.4-0.1,0.6-0.2,0.9-0.4s0.4-0.6,0.6-1c0.1-0.5,0.2-1.1,0.2-2s-0.1-1.5-0.2-1.9
			s-0.4-0.8-0.6-1c-0.3-0.2-0.6-0.4-1-0.5c-0.3-0.1-0.9-0.1-1.8-0.1h-1V167.4z"/>
		<path class="st8" d="M341,176.3v-4.5l-3.9-6.2h2.5l2.5,4.2l2.5-4.2h2.5l-3.9,6.2v4.5H341z"/>
		<path class="st8" d="M347.7,171c0-1.1,0.2-2,0.5-2.8c0.2-0.5,0.6-1,1-1.5c0.4-0.4,0.9-0.8,1.4-1c0.7-0.3,1.4-0.4,2.3-0.4
			c1.6,0,2.8,0.5,3.8,1.5c0.9,1,1.4,2.3,1.4,4.1c0,1.7-0.5,3.1-1.4,4.1s-2.2,1.5-3.8,1.5c-1.6,0-2.9-0.5-3.8-1.5
			C348.2,174.1,347.7,172.7,347.7,171z M350,170.9c0,1.2,0.3,2.1,0.8,2.8c0.6,0.6,1.3,0.9,2.1,0.9s1.6-0.3,2.1-0.9
			c0.6-0.6,0.8-1.6,0.8-2.8s-0.3-2.1-0.8-2.8c-0.5-0.6-1.3-0.9-2.1-0.9s-1.6,0.3-2.2,0.9C350.3,168.8,350,169.7,350,170.9z"/>
		<path class="st8" d="M359.8,165.6h2.2v5.8c0,0.9,0,1.5,0.1,1.8c0.1,0.4,0.3,0.8,0.7,1.1c0.3,0.3,0.8,0.4,1.4,0.4s1.1-0.1,1.4-0.4
			c0.3-0.3,0.5-0.6,0.6-0.9s0.1-1,0.1-1.8v-5.9h2.2v5.6c0,1.3-0.1,2.2-0.2,2.7s-0.3,1-0.6,1.3c-0.3,0.4-0.7,0.7-1.3,0.9
			c-0.5,0.2-1.2,0.3-2.1,0.3c-1,0-1.8-0.1-2.3-0.4c-0.5-0.2-0.9-0.5-1.3-0.9c-0.3-0.4-0.5-0.8-0.6-1.2c-0.1-0.6-0.2-1.5-0.2-2.7
			v-5.7H359.8z"/>
		<path class="st8" d="M370.7,176.3v-10.7h4.6c1.1,0,2,0.1,2.5,0.3s0.9,0.5,1.2,1s0.5,1.1,0.5,1.7c0,0.8-0.2,1.5-0.7,2
			s-1.2,0.9-2.1,1c0.5,0.3,0.9,0.6,1.2,0.9c0.3,0.3,0.7,0.9,1.2,1.7l1.3,2.1h-2.6l-1.6-2.3c-0.6-0.8-0.9-1.4-1.1-1.6
			c-0.2-0.2-0.4-0.4-0.7-0.4c-0.2-0.1-0.6-0.1-1.1-0.1h-0.4v4.5L370.7,176.3L370.7,176.3z M372.9,170.1h1.6c1,0,1.7,0,1.9-0.1
			s0.5-0.2,0.6-0.5s0.2-0.5,0.2-0.8c0-0.4-0.1-0.7-0.3-0.9c-0.2-0.2-0.5-0.4-0.8-0.4c-0.2,0-0.7,0-1.6,0h-1.7L372.9,170.1
			L372.9,170.1z"/>
		<path class="st8" d="M385.6,176.3v-10.7h2.2v10.7H385.6z"/>
		<path class="st8" d="M389.8,176.3v-10.7h3.2l1.9,7.3l1.9-7.3h3.3v10.7h-2v-8.5l-2.1,8.5h-2.1l-2.1-8.5v8.5H389.8z"/>
		<path class="st8" d="M412,176.3h-2.4l-0.9-2.4h-4.3l-0.9,2.4h-2.3l4.2-10.7h2.3L412,176.3z M408,172.1l-1.5-4l-1.5,4H408z"/>
		<path class="st8" d="M418.2,172.4v-1.8h4.7v4.3c-0.5,0.4-1.1,0.8-2,1.2c-0.9,0.3-1.7,0.5-2.6,0.5c-1.1,0-2.1-0.2-2.9-0.7
			s-1.5-1.1-1.9-2s-0.6-1.8-0.6-2.9c0-1.1,0.2-2.1,0.7-3s1.2-1.5,2.1-2c0.7-0.4,1.5-0.5,2.6-0.5c1.3,0,2.4,0.3,3.1,0.8
			c0.7,0.6,1.2,1.3,1.4,2.3l-2.2,0.4c-0.2-0.5-0.4-0.9-0.9-1.2c-0.4-0.3-0.9-0.5-1.6-0.5c-0.9,0-1.7,0.3-2.3,0.9
			c-0.6,0.6-0.8,1.5-0.8,2.7c0,1.3,0.3,2.2,0.8,2.9c0.6,0.6,1.3,1,2.2,1c0.5,0,0.9-0.1,1.4-0.3s0.8-0.4,1.2-0.6v-1.5H418.2z"/>
		<path class="st8" d="M424.9,176.3v-10.7h8v1.8h-5.8v2.4h5.4v1.8h-5.4v2.9h6v1.8H424.9z"/>
	</g>
</g>
</svg>
