<?xml version="1.0" encoding="utf-8"?>
<!-- Generator: Adobe Illustrator 19.0.0, SVG Export Plug-In . SVG Version: 6.00 Build 0)  -->
<svg version="1.1" id="Layer_1" xmlns="http://www.w3.org/2000/svg" xmlns:xlink="http://www.w3.org/1999/xlink" x="0px" y="0px"
	 viewBox="205 -204.3 509.3 509.3" style="enable-background:new 205 -204.3 509.3 509.3;" xml:space="preserve">
<style type="text/css">
	.st0{fill:#F76B6B;}
	.st1{fill:#FCFCFD;}
	.st2{fill:#6EB1E1;}
	.st3{fill:#4F5565;}
	.st4{fill:#FFFFFC;}
</style>
<circle class="st0" cx="459.7" cy="50.4" r="241.4"/>
<path class="st1" d="M587.5-100.1H331.8c-12.4,0-22.6,10.1-22.6,22.6v255.6c0,12.4,10.1,22.6,22.6,22.6h255.6
	c12.4,0,22.6-10.1,22.6-22.6V-77.6C610-89.9,599.9-100.1,587.5-100.1z"/>
<polygon class="st2" points="455,57.5 526.5,-14.1 582,41.3 582,-74.9 337.3,-74.9 337.3,68.2 401.5,4.1 "/>
<polygon class="st3" points="526.5,-14.1 455,57.5 401.5,4.1 337.3,68.2 337.3,132.1 582,132.1 582,41.3 "/>
<circle class="st4" cx="457.5" cy="-24.9" r="21.4"/>
</svg>
