<?xml version="1.0" encoding="utf-8"?>
<!-- Generator: Adobe Illustrator 19.0.0, SVG Export Plug-In . SVG Version: 6.00 Build 0)  -->
<svg version="1.1" id="Layer_1" xmlns="http://www.w3.org/2000/svg" xmlns:xlink="http://www.w3.org/1999/xlink" x="0px" y="0px"
	 viewBox="206 -206 512 512" style="enable-background:new 206 -206 512 512;" xml:space="preserve">
<style type="text/css">
	.st0{fill:#70A0B8;}
	.st1{fill:#FFFFFF;}
</style>
<circle class="st0" cx="462" cy="50" r="233"/>
<path class="st1" d="M599.3,14.4H466.7c-2.6,0-4.7-2.1-4.7-4.7v-31.3c0-2.6,2.1-4.7,4.7-4.7h132.6c2.6,0,4.7,2.1,4.7,4.7V9.6
	C604,12.3,601.9,14.4,599.3,14.4z"/>
<path class="st1" d="M457.3,126.4H324.7c-2.6,0-4.7-2.1-4.7-4.7V90.4c0-2.6,2.1-4.7,4.7-4.7h132.6c2.6,0,4.7,2.1,4.7,4.7v31.3
	C462,124.3,459.9,126.4,457.3,126.4z"/>
</svg>
